<?xml version="1.0" encoding="UTF-8"?>
<svg id="baggrund" xmlns="http://www.w3.org/2000/svg" xmlns:xlink="http://www.w3.org/1999/xlink" viewBox="0 0 934 843">
  <image width="1868" height="1686" transform="translate(.33 .35) scale(.5)" xlink:href="tid.png"/>
  <g id="tid">
    <g>
      <rect x="610.82" y="123.1" width="78.53" height="179.05" transform="translate(209.42 735.73) rotate(-68)" fill="none"/>
      <path d="M573.7,172.18l6.56,2.65,7.02-17.37-5.62-2.27,1.74-4.31c3.47.69,5.92.73,8.55.28l5.12,2.07-9.87,24.42,5.62,2.27-2.27,5.61-19.14-7.73,2.27-5.61Z"/>
      <path d="M596.39,184.33l5.35-2.67c.55,1.57,2.03,3.34,3.78,4.04,3.53,1.43,7.32-.14,10.55-8.14,3.01-7.46,1.56-10.61-.97-11.64-2.05-.83-4.37-.08-5.74,3.32-1.28,3.17-.09,5.05,2.17,5.97,1.57.63,3.66.46,5.98-1.35l-1.52,4.67c-2.47,1.65-5.81,1.85-7.78,1.05-5.14-2.08-7.77-6.53-5.19-12.9,2.52-6.25,8.61-8.23,14.05-6.03,5.82,2.35,9.6,8.93,5.35,19.47-4.54,11.22-12.4,13.92-18.71,11.37-3.97-1.6-6.21-4.46-7.32-7.16Z"/>
      <path d="M625.94,182.19c4.13-10.22,10.53-13.71,16.98-11.11,6.45,2.61,8.61,9.61,4.5,19.79-4.13,10.22-10.64,13.98-17.09,11.38-6.45-2.61-8.52-9.84-4.39-20.05ZM640.85,188.22c3.31-8.19,2.25-10.81-.1-11.75-2.34-.95-4.92.2-8.23,8.39-3.31,8.19-2.35,11.08-.01,12.02,2.34.95,5.03-.46,8.34-8.66Z"/>
      <path d="M668.36,188.82l-13.46-5.44,2.36-5.84,20.9,8.44-1.73,4.28c-10.35,5.56-13.6,10.84-18.88,22.32l-6.98-2.82c4.59-9.77,8.93-15.37,17.79-20.94Z"/>
      <path d="M675.89,203.21l11.62,4.69-1.99,4.92-11.62-4.69,1.99-4.92Z"/>
      <path d="M688.51,218.57l6.56,2.65,7.02-17.37-5.62-2.27,1.74-4.31c3.47.69,5.92.73,8.55.28l5.12,2.07-9.87,24.42,5.62,2.27-2.27,5.61-19.14-7.73,2.27-5.61Z"/>
      <path d="M715.94,218.21c4.21-10.42,10.74-13.98,17.32-11.33,6.58,2.66,8.78,9.8,4.59,20.18-4.21,10.42-10.85,14.26-17.43,11.6-6.58-2.66-8.69-10.03-4.48-20.45ZM731.14,224.35c3.38-8.36,2.29-11.02-.1-11.99-2.39-.96-5.02.2-8.4,8.55-3.38,8.36-2.4,11.29-.01,12.26,2.39.96,5.13-.47,8.51-8.83Z"/>
    </g>
    <g>
      <path d="M272,240.06l7.07.37.98-18.71-6.06-.32.24-4.64c3.5-.48,5.84-1.24,8.18-2.52l5.52.29-1.38,26.3,6.06.32-.32,6.04-20.61-1.08.32-6.04Z"/>
      <path d="M297.4,244.16l4.19-4.27c1.03,1.3,3.01,2.49,4.89,2.59,3.8.2,6.88-2.52,7.33-11.14.42-8.03-1.98-10.54-4.71-10.69-2.21-.12-4.15,1.35-4.35,5-.18,3.42,1.56,4.81,4,4.94,1.69.09,3.61-.75,5.21-3.22l.08,4.91c-1.8,2.36-4.89,3.64-7.01,3.52-5.54-.29-9.47-3.65-9.11-10.5.35-6.73,5.46-10.58,11.32-10.28,6.27.33,11.99,5.32,11.4,16.67-.63,12.09-7.19,17.2-13.99,16.84-4.28-.22-7.32-2.2-9.25-4.39Z"/>
      <path d="M325.78,242.88l7.07.37.98-18.71-6.06-.32.24-4.64c3.5-.48,5.84-1.24,8.18-2.52l5.52.29-1.38,26.3,6.06.32-.32,6.04-20.61-1.08.32-6.04Z"/>
      <path d="M351.55,233.93c.58-11.01,5.49-16.4,12.44-16.03,6.95.36,11.27,6.28,10.7,17.24-.58,11.01-5.51,16.68-12.46,16.32-6.95-.36-11.26-6.53-10.68-17.53ZM367.6,234.77c.46-8.82-1.4-10.95-3.92-11.08-2.52-.13-4.59,1.79-5.05,10.61-.46,8.82,1.38,11.24,3.9,11.37,2.52.13,4.61-2.08,5.07-10.9Z"/>
      <path d="M378.73,236.13l12.51.66-.28,5.3-12.51-.66.28-5.3Z"/>
      <path d="M393.91,248.2c8.64-7.35,14.73-12.57,14.97-17.2.16-3.13-1.48-4.94-4.33-5.09-2.3-.12-4.21,1.37-5.92,2.99l-3.85-4.25c3.36-3.24,6.47-4.8,11.1-4.56,6.38.33,10.51,4.63,10.18,10.87-.29,5.44-5.67,10.98-11.26,16.18,1.68-.1,3.94-.17,5.44-.09l6.51.34-.33,6.29-22.74-1.19.22-4.29Z"/>
      <path d="M421.48,237.27c.59-11.22,5.6-16.72,12.69-16.35,7.09.37,11.49,6.4,10.91,17.58-.59,11.22-5.62,17.01-12.7,16.64-7.09-.37-11.48-6.65-10.89-17.88ZM437.85,238.13c.47-9-1.42-11.17-3.99-11.3-2.57-.13-4.68,1.82-5.15,10.82s1.41,11.46,3.98,11.6c2.57.13,4.7-2.12,5.17-11.12Z"/>
    </g>
    <g>
      <path d="M622.98,352.04l7.07-.37-.98-18.71-6.06.32-.24-4.64c3.44-.84,5.68-1.84,7.87-3.36l5.52-.29,1.38,26.3,6.06-.32.32,6.04-20.61,1.08-.32-6.04Z"/>
      <path d="M648.67,353.46l3.72-4.68c1.16,1.19,3.25,2.17,5.14,2.07,3.8-.2,6.58-3.22,6.12-11.84-.42-8.03-3.07-10.28-5.8-10.14-2.21.12-3.99,1.78-3.8,5.43.18,3.42,2.05,4.62,4.49,4.49,1.69-.09,3.51-1.13,4.85-3.75l.59,4.87c-1.54,2.54-4.48,4.13-6.61,4.24-5.54.29-9.8-2.64-10.16-9.49-.35-6.73,4.33-11.1,10.19-11.4,6.27-.33,12.48,4.04,13.07,15.39.63,12.09-5.35,17.86-12.15,18.21-4.28.22-7.51-1.42-9.66-3.4Z"/>
      <path d="M675.2,351.06c7.82-8.21,13.33-14.04,13.09-18.67-.16-3.13-1.99-4.76-4.84-4.61-2.3.12-4.04,1.8-5.57,3.59l-4.27-3.83c3-3.57,5.93-5.45,10.56-5.69,6.38-.33,10.94,3.51,11.27,9.74.29,5.44-4.5,11.51-9.5,17.27,1.66-.27,3.9-.58,5.4-.66l6.51-.34.33,6.29-22.74,1.19-.22-4.29Z"/>
      <path d="M701.45,337.63c-.58-11.01,3.75-16.88,10.7-17.24,6.95-.36,11.87,5.07,12.44,16.03.58,11.01-3.73,17.17-10.68,17.53s-11.88-5.31-12.46-16.32ZM717.5,336.79c-.46-8.82-2.53-10.74-5.05-10.61-2.52.13-4.38,2.26-3.92,11.08.46,8.82,2.55,11.03,5.07,10.9,2.52-.13,4.36-2.55,3.9-11.37Z"/>
      <path d="M728.71,336.98l12.51-.66.28,5.3-12.51.66-.28-5.3Z"/>
      <path d="M744.31,347.76l3.2-4.91c2.08,1.78,4.54,3.04,7.26,2.9,3.16-.17,5.19-1.65,5.06-4.14-.15-2.84-1.9-4.5-8.93-4.13l-.28-5.3c5.81-.3,7.54-2.17,7.41-4.73-.12-2.28-1.64-3.49-4.17-3.35-2.3.12-3.99,1.25-5.9,3.14l-4.03-4.36c2.84-2.71,6.01-4.47,9.95-4.67,6.72-.35,11.32,2.6,11.62,8.29.17,3.33-1.61,5.82-5.01,7.47v.2c3.8.87,6.65,3.36,6.87,7.55.32,6.02-5.02,9.71-11.53,10.05-5.24.27-9-1.39-11.52-3.99Z"/>
      <path d="M771.32,333.97c-.58-11.01,3.75-16.88,10.7-17.24s11.87,5.07,12.44,16.03c.58,11.01-3.73,17.17-10.68,17.53s-11.88-5.31-12.46-16.32ZM787.38,333.13c-.46-8.82-2.53-10.74-5.05-10.61-2.52.13-4.38,2.26-3.92,11.08.46,8.82,2.55,11.03,5.07,10.9,2.52-.13,4.36-2.55,3.9-11.37Z"/>
    </g>
    <g>
      <path d="M239.42,376.79l7.01-.98-2.61-18.56-6.01.84-.65-4.61c3.35-1.14,5.5-2.33,7.55-4.04l5.47-.77,3.66,26.08,6.01-.84.84,5.99-20.44,2.87-.84-5.99Z"/>
      <path d="M265.14,375.96l3.3-4.99c1.26,1.08,3.43,1.88,5.3,1.61,3.77-.53,6.27-3.78,5.07-12.33-1.12-7.96-3.95-9.97-6.66-9.59-2.19.31-3.82,2.12-3.31,5.74.48,3.39,2.45,4.42,4.87,4.08,1.68-.24,3.4-1.43,4.5-4.16l1.01,4.8c-1.32,2.66-4.1,4.5-6.21,4.8-5.49.77-9.99-1.78-10.95-8.57-.94-6.67,3.34-11.43,9.16-12.25,6.21-.87,12.78,2.93,14.37,14.19,1.69,11.99-3.78,18.26-10.52,19.2-4.24.6-7.6-.76-9.92-2.54Z"/>
      <path d="M290.63,371.68l2.76-5.17c2.22,1.6,4.79,2.63,7.48,2.25,3.13-.44,5.02-2.1,4.68-4.56-.4-2.81-2.28-4.32-9.26-3.34l-.74-5.26c5.76-.81,7.33-2.82,6.97-5.36-.32-2.26-1.93-3.33-4.45-2.98-2.28.32-3.86,1.6-5.6,3.65l-4.39-4c2.6-2.95,5.6-4.97,9.5-5.52,6.66-.94,11.51,1.61,12.3,7.24.46,3.3-1.1,5.94-4.35,7.87l.03.2c3.86.54,6.91,2.77,7.49,6.92.84,5.97-4.16,10.11-10.61,11.02-5.19.73-9.09-.6-11.82-2.97Z"/>
      <path d="M316.34,355.59c-1.53-10.91,2.26-17.14,9.15-18.11,6.89-.97,12.26,4.01,13.79,14.89,1.53,10.91-2.22,17.43-9.11,18.4-6.89.97-12.3-4.26-13.83-15.17ZM332.26,353.35c-1.23-8.75-3.46-10.48-5.96-10.13-2.5.35-4.17,2.63-2.94,11.38,1.23,8.75,3.5,10.77,6,10.42,2.5-.35,4.13-2.92,2.9-11.67Z"/>
      <path d="M343.44,352.56l12.41-1.74.74,5.26-12.41,1.74-.74-5.26Z"/>
      <path d="M371.61,345.41c-.29-2.04-.54-5.17-.72-7.22l-.2.03c-.55,1.93-1.21,3.83-1.86,5.79l-3.23,7.59,17.38-2.44.8,5.66-24.49,3.44-.72-5.14,9-20.93,9.08-1.28,4.51,32.07-6.92.97-2.61-18.55Z"/>
      <path d="M385.63,345.85c-1.53-10.91,2.26-17.14,9.15-18.11,6.89-.97,12.26,4.01,13.79,14.89,1.53,10.91-2.22,17.43-9.11,18.4-6.89.97-12.3-4.26-13.83-15.17ZM401.55,343.61c-1.23-8.75-3.46-10.48-5.96-10.13-2.5.35-4.17,2.63-2.94,11.38,1.23,8.75,3.5,10.77,6,10.42,2.5-.35,4.12-2.92,2.9-11.67Z"/>
    </g>
    <g>
      <path d="M671.66,496.26l6.87,1.71,4.53-18.18-5.89-1.47,1.12-4.51c3.53.2,5.97-.1,8.51-.92l5.36,1.34-6.37,25.55,5.88,1.47-1.46,5.87-20.03-4.99,1.46-5.87Z"/>
      <path d="M695.81,505.13l4.93-3.39c.77,1.48,2.47,3.02,4.31,3.48,3.7.92,7.23-1.16,9.32-9.53,1.95-7.8.07-10.73-2.58-11.39-2.15-.54-4.34.53-5.22,4.08-.83,3.32.61,5.02,2.98,5.61,1.64.41,3.69-.05,5.73-2.17l-.86,4.83c-2.22,1.98-5.49,2.64-7.56,2.12-5.38-1.34-8.6-5.39-6.94-12.05,1.63-6.54,7.38-9.34,13.08-7.92,6.09,1.52,10.75,7.51,8,18.54-2.93,11.75-10.34,15.51-16.95,13.87-4.16-1.04-6.77-3.55-8.24-6.07Z"/>
      <path d="M738.08,499.75c.5-2,1.44-5,2.03-6.97l-.2-.05c-1.23,1.58-2.56,3.1-3.9,4.67l-5.83,5.83,17.03,4.24-1.38,5.54-24-5.98,1.25-5.03,16.18-16.03,8.9,2.22-7.83,31.42-6.78-1.69,4.53-18.17Z"/>
      <path d="M750.91,505.42c2.67-10.69,8.52-15.05,15.27-13.36,6.75,1.68,9.87,8.31,7.21,18.97-2.67,10.69-8.59,15.33-15.34,13.64s-9.81-8.55-7.14-19.25ZM766.51,509.31c2.14-8.57.72-11.01-1.73-11.63-2.45-.61-4.85.88-6.99,9.45s-.79,11.3,1.66,11.91c2.45.61,4.92-1.16,7.06-9.73Z"/>
      <path d="M777.17,512.76l12.16,3.03-1.29,5.15-12.16-3.03,1.29-5.15Z"/>
      <path d="M788.98,527.68l4.42-3.78c1.45,2.2,3.33,4.17,6,4.83,3.21.8,5.7-.39,6.51-3.61.78-3.14-.81-5.36-3.72-6.09-1.82-.45-2.87-.29-5.05.45l-2.72-2.91,4.82-15.65,17.82,4.44-1.52,6.11-11.54-2.88-1.99,5.76c1.32-.21,2.38-.17,3.67.15,5.42,1.35,9.24,5.56,7.58,12.25-1.74,6.97-8.13,9.63-14.26,8.1-5.13-1.28-8.15-4.1-10-7.19Z"/>
      <path d="M818.92,522.04c2.72-10.9,8.69-15.34,15.57-13.63,6.89,1.72,10.06,8.48,7.35,19.34-2.72,10.9-8.76,15.63-15.64,13.91-6.89-1.72-10-8.72-7.28-19.63ZM834.83,526.01c2.18-8.74.73-11.23-1.76-11.86s-4.94.9-7.12,9.64c-2.18,8.74-.8,11.52,1.69,12.14s5.02-1.18,7.2-9.92Z"/>
    </g>
    <g>
      <path d="M310.3,495.22h7.08v-18.74h-6.07v-4.65c3.47-.66,5.77-1.54,8.03-2.95h5.53v26.33h6.06v6.05h-20.64v-6.05Z"/>
      <path d="M335.88,497.98l3.96-4.48c1.1,1.25,3.13,2.33,5.02,2.33,3.81,0,6.74-2.87,6.74-11.5,0-8.04-2.53-10.43-5.26-10.43-2.21,0-4.08,1.56-4.08,5.22,0,3.42,1.81,4.72,4.25,4.72,1.69,0,3.57-.94,5.04-3.49l.34,4.9c-1.67,2.45-4.69,3.89-6.82,3.89-5.54,0-9.65-3.15-9.65-10.01s4.9-10.85,10.77-10.85c6.27,0,12.25,4.69,12.25,16.05,0,12.11-6.28,17.55-13.09,17.55-4.28,0-7.43-1.81-9.47-3.9Z"/>
      <path d="M361.77,497.33l3.37-4.74c1.94,1.79,4.24,3.24,6.99,3.24,3.31,0,5.44-1.76,5.44-5.08s-2.09-5.01-5.09-5.01c-1.88,0-2.85.41-4.79,1.66l-3.34-2.16.89-16.35h18.37v6.3h-11.9l-.53,6.07c1.23-.52,2.27-.74,3.6-.74,5.59,0,10.31,3.16,10.31,10.05s-5.56,11.31-11.88,11.31c-5.29,0-8.9-2.01-11.44-4.55Z"/>
      <path d="M389.42,484.94c0-11.02,4.63-16.66,11.59-16.66s11.59,5.68,11.59,16.66-4.63,16.95-11.59,16.95-11.59-5.93-11.59-16.95ZM405.49,484.94c0-8.84-1.97-10.86-4.49-10.86s-4.49,2.03-4.49,10.86,1.97,11.15,4.49,11.15,4.49-2.31,4.49-11.15Z"/>
      <path d="M416.67,485.71h12.53v5.31h-12.53v-5.31Z"/>
      <path d="M432.66,485.83c0-12.11,6.28-17.55,13.09-17.55,4.28,0,7.42,1.81,9.47,3.9l-3.96,4.48c-1.1-1.25-3.13-2.33-5.02-2.33-3.77,0-6.74,2.87-6.74,11.5,0,8.04,2.53,10.43,5.26,10.43,2.21,0,4.08-1.56,4.08-5.22,0-3.42-1.81-4.72-4.25-4.72-1.69,0-3.57.94-5.04,3.49l-.34-4.9c1.67-2.45,4.69-3.89,6.82-3.89,5.54,0,9.65,3.15,9.65,10.01s-4.9,10.85-10.77,10.85c-6.27,0-12.25-4.69-12.25-16.05Z"/>
      <path d="M459.39,484.94c0-11.02,4.63-16.66,11.59-16.66s11.59,5.68,11.59,16.66-4.63,16.95-11.59,16.95-11.59-5.93-11.59-16.95ZM475.47,484.94c0-8.84-1.97-10.86-4.49-10.86s-4.49,2.03-4.49,10.86,1.97,11.15,4.49,11.15,4.49-2.31,4.49-11.15Z"/>
    </g>
    <g>
      <path d="M267.42,641.79l7.01-.98-2.61-18.56-6.01.84-.65-4.61c3.35-1.14,5.5-2.33,7.55-4.04l5.47-.77,3.66,26.08,6.01-.84.84,5.99-20.44,2.87-.84-5.99Z"/>
      <path d="M293.14,640.96l3.3-4.99c1.26,1.08,3.43,1.88,5.3,1.61,3.77-.53,6.27-3.78,5.07-12.33-1.12-7.96-3.95-9.97-6.66-9.59-2.19.31-3.82,2.12-3.31,5.74.48,3.39,2.45,4.42,4.87,4.08,1.68-.24,3.4-1.43,4.5-4.16l1.01,4.8c-1.32,2.66-4.1,4.5-6.21,4.8-5.49.77-9.99-1.78-10.95-8.57-.94-6.67,3.34-11.43,9.16-12.25,6.21-.87,12.78,2.93,14.37,14.19,1.69,11.99-3.78,18.26-10.52,19.2-4.24.6-7.6-.76-9.92-2.54Z"/>
      <path d="M318,625.19c-1.68-11.99,3.78-18.26,10.52-19.21,4.24-.6,7.6.76,9.92,2.54l-3.3,4.99c-1.26-1.08-3.43-1.88-5.3-1.61-3.73.52-6.27,3.78-5.07,12.33,1.12,7.96,3.95,9.97,6.66,9.59,2.19-.31,3.82-2.12,3.31-5.74-.48-3.39-2.44-4.42-4.87-4.08-1.67.24-3.4,1.43-4.5,4.16l-1.01-4.8c1.32-2.66,4.11-4.5,6.21-4.8,5.49-.77,9.99,1.78,10.95,8.57.94,6.67-3.34,11.43-9.15,12.25-6.21.87-12.78-2.93-14.37-14.19Z"/>
      <path d="M344.34,620.59c-1.53-10.91,2.26-17.14,9.15-18.11,6.89-.97,12.26,4.01,13.79,14.89,1.53,10.91-2.22,17.43-9.11,18.4-6.89.97-12.3-4.26-13.83-15.17ZM360.26,618.35c-1.23-8.75-3.46-10.48-5.96-10.13-2.5.35-4.17,2.63-2.94,11.38,1.23,8.75,3.5,10.77,6,10.42,2.5-.35,4.13-2.92,2.9-11.67Z"/>
      <path d="M371.44,617.56l12.41-1.74.74,5.26-12.41,1.74-.74-5.26Z"/>
      <path d="M400.34,602.88l-14.38,2.02-.88-6.24,22.32-3.14.64,4.57c-6.19,9.99-6.36,16.19-5.19,28.77l-7.46,1.05c-.91-10.75.05-17.78,4.94-27.03Z"/>
      <path d="M413.63,610.85c-1.53-10.91,2.26-17.14,9.15-18.11,6.89-.97,12.26,4.01,13.79,14.89,1.53,10.91-2.22,17.43-9.11,18.4-6.89.97-12.3-4.26-13.83-15.17ZM429.55,608.61c-1.23-8.75-3.46-10.48-5.96-10.13-2.5.35-4.17,2.63-2.94,11.38,1.23,8.75,3.5,10.77,6,10.42,2.5-.35,4.12-2.92,2.9-11.67Z"/>
    </g>
    <g>
      <path d="M421.3,749.22h7.08v-18.74h-6.07v-4.65c3.47-.66,5.77-1.54,8.03-2.95h5.53v26.33h6.06v6.05h-20.64v-6.05Z"/>
      <path d="M446.88,751.98l3.96-4.48c1.1,1.25,3.13,2.33,5.02,2.33,3.81,0,6.74-2.87,6.74-11.5,0-8.04-2.53-10.43-5.26-10.43-2.21,0-4.08,1.56-4.08,5.22,0,3.42,1.81,4.72,4.25,4.72,1.69,0,3.57-.94,5.04-3.49l.34,4.9c-1.67,2.45-4.69,3.89-6.82,3.89-5.54,0-9.65-3.15-9.65-10.01s4.9-10.85,10.77-10.85c6.27,0,12.25,4.69,12.25,16.05,0,12.11-6.28,17.55-13.09,17.55-4.28,0-7.43-1.81-9.47-3.9Z"/>
      <path d="M473.73,746.99c0-3.9,2.48-6.32,5.54-7.95v-.2c-2.51-1.87-4.36-4.23-4.36-7.61,0-5.51,4.34-8.95,10.36-8.95s9.85,3.5,9.85,8.89c0,3.08-2.02,5.59-4.23,7.08v.2c3.09,1.69,5.59,4.17,5.59,8.47,0,5.11-4.59,8.97-11.45,8.97-6.46,0-11.29-3.62-11.29-8.89ZM489.51,746.66c0-2.87-2.76-3.95-6.83-5.65-1.43,1.28-2.48,3.13-2.48,5.14,0,2.84,2.27,4.52,5,4.52,2.46,0,4.32-1.31,4.32-4.01ZM489.04,731.66c0-2.51-1.46-4.18-3.93-4.18-1.98,0-3.6,1.24-3.6,3.74,0,2.63,2.25,3.89,5.55,5.21,1.28-1.51,1.98-3.06,1.98-4.76Z"/>
      <path d="M500.42,738.94c0-11.02,4.63-16.66,11.59-16.66s11.59,5.68,11.59,16.66-4.63,16.95-11.59,16.95-11.59-5.93-11.59-16.95ZM516.49,738.94c0-8.84-1.97-10.86-4.49-10.86s-4.49,2.03-4.49,10.86,1.97,11.15,4.49,11.15,4.49-2.31,4.49-11.15Z"/>
      <path d="M527.67,739.71h12.53v5.31h-12.53v-5.31Z"/>
      <path d="M543.71,746.99c0-3.9,2.48-6.32,5.54-7.95v-.2c-2.51-1.87-4.36-4.23-4.36-7.61,0-5.51,4.34-8.95,10.36-8.95s9.85,3.5,9.85,8.89c0,3.08-2.02,5.59-4.23,7.08v.2c3.09,1.69,5.59,4.17,5.59,8.47,0,5.11-4.59,8.97-11.45,8.97-6.46,0-11.29-3.62-11.29-8.89ZM559.48,746.66c0-2.87-2.76-3.95-6.83-5.65-1.43,1.28-2.48,3.13-2.48,5.14,0,2.84,2.27,4.52,5,4.52,2.46,0,4.32-1.31,4.32-4.01ZM559.01,731.66c0-2.51-1.46-4.18-3.93-4.18-1.98,0-3.6,1.24-3.6,3.74,0,2.63,2.25,3.89,5.55,5.21,1.28-1.51,1.98-3.06,1.98-4.76Z"/>
      <path d="M569.62,751.29l3.46-4.74c1.98,1.89,4.38,3.27,7.1,3.27,3.16,0,5.27-1.38,5.27-3.87,0-2.84-1.66-4.59-8.7-4.59v-5.31c5.82,0,7.65-1.77,7.65-4.34,0-2.28-1.45-3.57-3.99-3.57-2.3,0-4.05,1.04-6.05,2.83l-3.79-4.57c2.98-2.56,6.24-4.15,10.18-4.15,6.73,0,11.17,3.19,11.17,8.89,0,3.33-1.91,5.73-5.4,7.19v.2c3.74,1.07,6.45,3.71,6.45,7.89,0,6.03-5.53,9.43-12.04,9.43-5.24,0-8.92-1.86-11.29-4.59Z"/>
    </g>
    <g id="aar1970-80">
      <path d="M588.61,634.42l7.07.37.98-18.71-6.06-.32.24-4.64c3.5-.48,5.84-1.24,8.18-2.52l5.52.29-1.38,26.3,6.06.32-.32,6.04-20.61-1.08.32-6.04Z"/>
      <path d="M614.02,638.51l4.19-4.27c1.03,1.3,3.01,2.49,4.89,2.59,3.8.2,6.88-2.52,7.33-11.14.42-8.03-1.98-10.54-4.71-10.69-2.21-.12-4.15,1.35-4.35,5-.18,3.42,1.56,4.81,4,4.94,1.69.09,3.61-.75,5.21-3.22l.08,4.91c-1.8,2.36-4.89,3.64-7.01,3.52-5.54-.29-9.47-3.65-9.11-10.5.35-6.73,5.46-10.58,11.32-10.28,6.27.33,11.99,5.32,11.39,16.67-.63,12.09-7.19,17.2-13.99,16.84-4.28-.22-7.32-2.2-9.25-4.39Z"/>
      <path d="M656.64,617.92l-14.5-.76.33-6.29,22.51,1.18-.24,4.61c-7.98,8.63-9.33,14.68-10.58,27.25l-7.52-.39c1.16-10.73,3.44-17.44,10-25.59Z"/>
      <path d="M668.16,628.28c.58-11.01,5.49-16.4,12.44-16.03,6.95.36,11.27,6.28,10.7,17.24-.58,11.01-5.51,16.68-12.46,16.32-6.95-.36-11.26-6.53-10.68-17.53ZM684.21,629.13c.46-8.82-1.4-10.95-3.92-11.08-2.52-.13-4.59,1.79-5.05,10.61-.46,8.82,1.38,11.24,3.9,11.37,2.52.13,4.61-2.08,5.07-10.9Z"/>
      <path d="M695.34,630.48l12.51.66-.28,5.3-12.51-.66.28-5.3Z"/>
      <path d="M710.97,638.6c.2-3.89,2.8-6.18,5.94-7.65v-.2c-2.4-2-4.12-4.45-3.94-7.83.29-5.51,4.81-8.71,10.82-8.39,5.92.31,9.65,4.01,9.37,9.39-.16,3.08-2.31,5.48-4.59,6.85v.2c2.99,1.85,5.35,4.46,5.12,8.75-.27,5.1-5.05,8.72-11.91,8.36-6.45-.34-11.09-4.21-10.81-9.47ZM726.74,639.09c.15-2.86-2.55-4.09-6.53-6-1.49,1.21-2.64,3-2.75,5-.15,2.83,2.03,4.63,4.75,4.78,2.46.13,4.38-1.08,4.52-3.78ZM727.05,624.09c.13-2.51-1.24-4.25-3.7-4.38-1.98-.1-3.66,1.05-3.8,3.54-.14,2.62,2.05,4,5.27,5.49,1.35-1.44,2.14-2.96,2.23-4.65Z"/>
      <path d="M738.03,631.95c.58-11.01,5.49-16.4,12.44-16.03s11.27,6.28,10.7,17.24c-.58,11.01-5.51,16.68-12.46,16.32s-11.26-6.53-10.68-17.53ZM754.09,632.79c.46-8.82-1.4-10.95-3.92-11.08-2.52-.13-4.59,1.79-5.05,10.61-.46,8.82,1.38,11.24,3.9,11.37,2.52.13,4.61-2.08,5.07-10.9Z"/>
    </g>
  </g>
</svg>