<?xml version="1.0" encoding="UTF-8"?>
<svg id="baggrund" xmlns="http://www.w3.org/2000/svg" xmlns:xlink="http://www.w3.org/1999/xlink" version="1.1" viewBox="0 0 934 843">
  <!-- Generator: Adobe Illustrator 29.1.0, SVG Export Plug-In . SVG Version: 2.1.0 Build 142)  -->
  <defs>
    <style>
      .st0 {
        fill: none;
      }
    </style>
  </defs>
  <image width="1868" height="1686" transform="translate(.3 .4) scale(.5)" xlink:href="tid-1.png"/>
  <g id="tid">
    <g id="aar1907-10">
      <rect class="st0" x="610.8" y="123.1" width="78.5" height="179" transform="translate(209.4 735.7) rotate(-68)"/>
      <path d="M573.7,172.2l6.6,2.7,7-17.4-5.6-2.3,1.7-4.3c3.5.7,5.9.7,8.6.3l5.1,2.1-9.9,24.4,5.6,2.3-2.3,5.6-19.1-7.7,2.3-5.6Z"/>
      <path d="M596.4,184.3l5.4-2.7c.6,1.6,2,3.3,3.8,4,3.5,1.4,7.3-.1,10.6-8.1,3-7.5,1.6-10.6-1-11.6-2.1-.8-4.4,0-5.7,3.3-1.3,3.2,0,5.1,2.2,6,1.6.6,3.7.5,6-1.3l-1.5,4.7c-2.5,1.6-5.8,1.8-7.8,1-5.1-2.1-7.8-6.5-5.2-12.9,2.5-6.2,8.6-8.2,14.1-6,5.8,2.3,9.6,8.9,5.3,19.5-4.5,11.2-12.4,13.9-18.7,11.4-4-1.6-6.2-4.5-7.3-7.2Z"/>
      <path d="M625.9,182.2c4.1-10.2,10.5-13.7,17-11.1,6.5,2.6,8.6,9.6,4.5,19.8-4.1,10.2-10.6,14-17.1,11.4-6.5-2.6-8.5-9.8-4.4-20.1ZM640.8,188.2c3.3-8.2,2.2-10.8,0-11.8-2.3-.9-4.9.2-8.2,8.4-3.3,8.2-2.4,11.1,0,12,2.3.9,5-.5,8.3-8.7Z"/>
      <path d="M668.4,188.8l-13.5-5.4,2.4-5.8,20.9,8.4-1.7,4.3c-10.4,5.6-13.6,10.8-18.9,22.3l-7-2.8c4.6-9.8,8.9-15.4,17.8-20.9Z"/>
      <path d="M675.9,203.2l11.6,4.7-2,4.9-11.6-4.7,2-4.9Z"/>
      <path d="M688.5,218.6l6.6,2.7,7-17.4-5.6-2.3,1.7-4.3c3.5.7,5.9.7,8.6.3l5.1,2.1-9.9,24.4,5.6,2.3-2.3,5.6-19.1-7.7,2.3-5.6Z"/>
      <path d="M715.9,218.2c4.2-10.4,10.7-14,17.3-11.3,6.6,2.7,8.8,9.8,4.6,20.2-4.2,10.4-10.8,14.3-17.4,11.6-6.6-2.7-8.7-10-4.5-20.5ZM731.1,224.3c3.4-8.4,2.3-11,0-12-2.4-1-5,.2-8.4,8.6-3.4,8.4-2.4,11.3,0,12.3,2.4,1,5.1-.5,8.5-8.8Z"/>
    </g>
    <g id="aar1910-20">
      <path d="M272,240.1l7.1.4,1-18.7-6.1-.3.2-4.6c3.5-.5,5.8-1.2,8.2-2.5l5.5.3-1.4,26.3,6.1.3-.3,6-20.6-1.1.3-6Z"/>
      <path d="M297.4,244.2l4.2-4.3c1,1.3,3,2.5,4.9,2.6,3.8.2,6.9-2.5,7.3-11.1.4-8-2-10.5-4.7-10.7-2.2-.1-4.2,1.3-4.3,5-.2,3.4,1.6,4.8,4,4.9,1.7,0,3.6-.8,5.2-3.2v4.9c-1.7,2.4-4.8,3.6-6.9,3.5-5.5-.3-9.5-3.6-9.1-10.5.4-6.7,5.5-10.6,11.3-10.3,6.3.3,12,5.3,11.4,16.7-.6,12.1-7.2,17.2-14,16.8-4.3-.2-7.3-2.2-9.3-4.4Z"/>
      <path d="M325.8,242.9l7.1.4,1-18.7-6.1-.3.2-4.6c3.5-.5,5.8-1.2,8.2-2.5l5.5.3-1.4,26.3,6.1.3-.3,6-20.6-1.1.3-6Z"/>
      <path d="M351.5,233.9c.6-11,5.5-16.4,12.4-16,7,.4,11.3,6.3,10.7,17.2-.6,11-5.5,16.7-12.5,16.3-6.9-.4-11.3-6.5-10.7-17.5ZM367.6,234.8c.5-8.8-1.4-11-3.9-11.1-2.5-.1-4.6,1.8-5.1,10.6-.5,8.8,1.4,11.2,3.9,11.4,2.5.1,4.6-2.1,5.1-10.9Z"/>
      <path d="M378.7,236.1l12.5.7-.3,5.3-12.5-.7.3-5.3Z"/>
      <path d="M393.9,248.2c8.6-7.3,14.7-12.6,15-17.2.2-3.1-1.5-4.9-4.3-5.1-2.3-.1-4.2,1.4-5.9,3l-3.8-4.3c3.4-3.2,6.5-4.8,11.1-4.6,6.4.3,10.5,4.6,10.2,10.9-.3,5.4-5.7,11-11.3,16.2,1.7,0,3.9-.2,5.4,0l6.5.3-.3,6.3-22.7-1.2.2-4.3Z"/>
      <path d="M421.5,237.3c.6-11.2,5.6-16.7,12.7-16.3,7.1.4,11.5,6.4,10.9,17.6-.6,11.2-5.6,17-12.7,16.6-7.1-.4-11.5-6.7-10.9-17.9ZM437.8,238.1c.5-9-1.4-11.2-4-11.3-2.6-.1-4.7,1.8-5.2,10.8s1.4,11.5,4,11.6c2.6.1,4.7-2.1,5.2-11.1Z"/>
    </g>
    <g id="aar1920-30">
      <path d="M623,352l7.1-.4-1-18.7-6.1.3-.2-4.6c3.4-.8,5.7-1.8,7.9-3.4l5.5-.3,1.4,26.3,6.1-.3.3,6-20.6,1.1-.3-6Z"/>
      <path d="M648.7,353.5l3.7-4.7c1.2,1.2,3.2,2.2,5.1,2.1,3.8-.2,6.6-3.2,6.1-11.8-.4-8-3.1-10.3-5.8-10.1-2.2.1-4,1.8-3.8,5.4.2,3.4,2.1,4.6,4.5,4.5,1.7,0,3.5-1.1,4.8-3.7l.6,4.9c-1.5,2.5-4.5,4.1-6.6,4.2-5.5.3-9.8-2.6-10.2-9.5-.4-6.7,4.3-11.1,10.2-11.4,6.3-.3,12.5,4,13.1,15.4.6,12.1-5.4,17.9-12.2,18.2-4.3.2-7.5-1.4-9.7-3.4Z"/>
      <path d="M675.2,351.1c7.8-8.2,13.3-14,13.1-18.7-.2-3.1-2-4.8-4.8-4.6-2.3.1-4,1.8-5.6,3.6l-4.3-3.8c3-3.6,5.9-5.4,10.6-5.7,6.4-.3,10.9,3.5,11.3,9.7.3,5.4-4.5,11.5-9.5,17.3,1.7-.3,3.9-.6,5.4-.7l6.5-.3.3,6.3-22.7,1.2-.2-4.3Z"/>
      <path d="M701.4,337.6c-.6-11,3.7-16.9,10.7-17.2,6.9-.4,11.9,5.1,12.4,16,.6,11-3.7,17.2-10.7,17.5s-11.9-5.3-12.5-16.3ZM717.5,336.8c-.5-8.8-2.5-10.7-5.1-10.6-2.5.1-4.4,2.3-3.9,11.1.5,8.8,2.5,11,5.1,10.9,2.5-.1,4.4-2.5,3.9-11.4Z"/>
      <path d="M728.7,337l12.5-.7.3,5.3-12.5.7-.3-5.3Z"/>
      <path d="M744.3,347.8l3.2-4.9c2.1,1.8,4.5,3,7.3,2.9,3.2-.2,5.2-1.7,5.1-4.1-.1-2.8-1.9-4.5-8.9-4.1l-.3-5.3c5.8-.3,7.5-2.2,7.4-4.7-.1-2.3-1.6-3.5-4.2-3.4-2.3.1-4,1.3-5.9,3.1l-4-4.4c2.8-2.7,6-4.5,10-4.7,6.7-.4,11.3,2.6,11.6,8.3.2,3.3-1.6,5.8-5,7.5v.2c3.8.9,6.7,3.4,6.9,7.5.3,6-5,9.7-11.5,10-5.2.3-9-1.4-11.5-4Z"/>
      <path d="M771.3,334c-.6-11,3.7-16.9,10.7-17.2s11.9,5.1,12.4,16c.6,11-3.7,17.2-10.7,17.5s-11.9-5.3-12.5-16.3ZM787.4,333.1c-.5-8.8-2.5-10.7-5.1-10.6-2.5.1-4.4,2.3-3.9,11.1.5,8.8,2.5,11,5.1,10.9,2.5-.1,4.4-2.5,3.9-11.4Z"/>
    </g>
    <g id="aar1930-40">
      <path d="M239.4,376.8l7-1-2.6-18.6-6,.8-.6-4.6c3.3-1.1,5.5-2.3,7.5-4l5.5-.8,3.7,26.1,6-.8.8,6-20.4,2.9-.8-6Z"/>
      <path d="M265.1,376l3.3-5c1.3,1.1,3.4,1.9,5.3,1.6,3.8-.5,6.3-3.8,5.1-12.3-1.1-8-4-10-6.7-9.6-2.2.3-3.8,2.1-3.3,5.7.5,3.4,2.4,4.4,4.9,4.1,1.7-.2,3.4-1.4,4.5-4.2l1,4.8c-1.3,2.7-4.1,4.5-6.2,4.8-5.5.8-10-1.8-10.9-8.6-.9-6.7,3.3-11.4,9.2-12.2,6.2-.9,12.8,2.9,14.4,14.2,1.7,12-3.8,18.3-10.5,19.2-4.2.6-7.6-.8-9.9-2.5Z"/>
      <path d="M290.6,371.7l2.8-5.2c2.2,1.6,4.8,2.6,7.5,2.3,3.1-.4,5-2.1,4.7-4.6-.4-2.8-2.3-4.3-9.3-3.3l-.7-5.3c5.8-.8,7.3-2.8,7-5.4-.3-2.3-1.9-3.3-4.5-3-2.3.3-3.9,1.6-5.6,3.6l-4.4-4c2.6-3,5.6-5,9.5-5.5,6.7-.9,11.5,1.6,12.3,7.2.5,3.3-1.1,5.9-4.3,7.9v.2c3.9.5,6.9,2.8,7.5,6.9.8,6-4.2,10.1-10.6,11-5.2.7-9.1-.6-11.8-3Z"/>
      <path d="M316.3,355.6c-1.5-10.9,2.3-17.1,9.2-18.1,6.9-1,12.3,4,13.8,14.9,1.5,10.9-2.2,17.4-9.1,18.4-6.9,1-12.3-4.3-13.8-15.2ZM332.3,353.4c-1.2-8.8-3.5-10.5-6-10.1-2.5.4-4.2,2.6-2.9,11.4,1.2,8.8,3.5,10.8,6,10.4,2.5-.4,4.1-2.9,2.9-11.7Z"/>
      <path d="M343.4,352.6l12.4-1.7.7,5.3-12.4,1.7-.7-5.3Z"/>
      <path d="M371.6,345.4c-.3-2-.5-5.2-.7-7.2h-.2c-.6,2-1.2,3.9-1.9,5.8l-3.2,7.6,17.4-2.4.8,5.7-24.5,3.4-.7-5.1,9-20.9,9.1-1.3,4.5,32.1-6.9,1-2.6-18.5Z"/>
      <path d="M385.6,345.9c-1.5-10.9,2.3-17.1,9.2-18.1,6.9-1,12.3,4,13.8,14.9,1.5,10.9-2.2,17.4-9.1,18.4-6.9,1-12.3-4.3-13.8-15.2ZM401.5,343.6c-1.2-8.8-3.5-10.5-6-10.1-2.5.4-4.2,2.6-2.9,11.4,1.2,8.8,3.5,10.8,6,10.4,2.5-.4,4.1-2.9,2.9-11.7Z"/>
    </g>
    <g id="aar1940-50">
      <path d="M671.7,496.3l6.9,1.7,4.5-18.2-5.9-1.5,1.1-4.5c3.5.2,6-.1,8.5-.9l5.4,1.3-6.4,25.6,5.9,1.5-1.5,5.9-20-5,1.5-5.9Z"/>
      <path d="M695.8,505.1l4.9-3.4c.8,1.5,2.5,3,4.3,3.5,3.7.9,7.2-1.2,9.3-9.5,1.9-7.8,0-10.7-2.6-11.4-2.1-.5-4.3.5-5.2,4.1-.8,3.3.6,5,3,5.6,1.6.4,3.7,0,5.7-2.2l-.9,4.8c-2.2,2-5.5,2.6-7.6,2.1-5.4-1.3-8.6-5.4-6.9-12,1.6-6.5,7.4-9.3,13.1-7.9,6.1,1.5,10.8,7.5,8,18.5-2.9,11.7-10.3,15.5-16.9,13.9-4.2-1-6.8-3.6-8.2-6.1Z"/>
      <path d="M738.1,499.8c.5-2,1.4-5,2-7h-.2c-1.2,1.5-2.6,3-3.9,4.6l-5.8,5.8,17,4.2-1.4,5.5-24-6,1.3-5,16.2-16,8.9,2.2-7.8,31.4-6.8-1.7,4.5-18.2Z"/>
      <path d="M750.9,505.4c2.7-10.7,8.5-15,15.3-13.4,6.8,1.7,9.9,8.3,7.2,19-2.7,10.7-8.6,15.3-15.3,13.6s-9.8-8.6-7.1-19.2ZM766.5,509.3c2.1-8.6.7-11-1.7-11.6-2.4-.6-4.8.9-7,9.5s-.8,11.3,1.7,11.9c2.4.6,4.9-1.2,7.1-9.7Z"/>
      <path d="M777.2,512.8l12.2,3-1.3,5.2-12.2-3,1.3-5.2Z"/>
      <path d="M789,527.7l4.4-3.8c1.4,2.2,3.3,4.2,6,4.8,3.2.8,5.7-.4,6.5-3.6.8-3.1-.8-5.4-3.7-6.1-1.8-.5-2.9-.3-5.1.4l-2.7-2.9,4.8-15.7,17.8,4.4-1.5,6.1-11.5-2.9-2,5.8c1.3-.2,2.4-.2,3.7.2,5.4,1.4,9.2,5.6,7.6,12.2-1.7,7-8.1,9.6-14.3,8.1-5.1-1.3-8.1-4.1-10-7.2Z"/>
      <path d="M818.9,522c2.7-10.9,8.7-15.3,15.6-13.6,6.9,1.7,10.1,8.5,7.4,19.3-2.7,10.9-8.8,15.6-15.6,13.9-6.9-1.7-10-8.7-7.3-19.6ZM834.8,526c2.2-8.7.7-11.2-1.8-11.9s-4.9.9-7.1,9.6c-2.2,8.7-.8,11.5,1.7,12.1s5-1.2,7.2-9.9Z"/>
    </g>
    <g id="aar1950-60">
      <path d="M310.3,495.2h7.1v-18.7h-6.1v-4.7c3.5-.7,5.8-1.5,8-2.9h5.5v26.3h6.1v6h-20.6v-6Z"/>
      <path d="M335.9,498l4-4.5c1.1,1.2,3.1,2.3,5,2.3,3.8,0,6.7-2.9,6.7-11.5s-2.5-10.4-5.3-10.4-4.1,1.6-4.1,5.2,1.8,4.7,4.3,4.7,3.6-.9,5-3.5l.3,4.9c-1.7,2.5-4.7,3.9-6.8,3.9-5.5,0-9.6-3.1-9.6-10s4.9-10.9,10.8-10.9,12.3,4.7,12.3,16.1-6.3,17.6-13.1,17.6-7.4-1.8-9.5-3.9Z"/>
      <path d="M361.8,497.3l3.4-4.7c1.9,1.8,4.2,3.2,7,3.2s5.4-1.8,5.4-5.1-2.1-5-5.1-5-2.9.4-4.8,1.7l-3.3-2.2.9-16.4h18.4v6.3h-11.9l-.5,6.1c1.2-.5,2.3-.7,3.6-.7,5.6,0,10.3,3.2,10.3,10s-5.6,11.3-11.9,11.3-8.9-2-11.4-4.6Z"/>
      <path d="M389.4,484.9c0-11,4.6-16.7,11.6-16.7s11.6,5.7,11.6,16.7-4.6,16.9-11.6,16.9-11.6-5.9-11.6-16.9ZM405.5,484.9c0-8.8-2-10.9-4.5-10.9s-4.5,2-4.5,10.9,2,11.2,4.5,11.2,4.5-2.3,4.5-11.2Z"/>
      <path d="M416.7,485.7h12.5v5.3h-12.5v-5.3Z"/>
      <path d="M432.7,485.8c0-12.1,6.3-17.6,13.1-17.6s7.4,1.8,9.5,3.9l-4,4.5c-1.1-1.2-3.1-2.3-5-2.3-3.8,0-6.7,2.9-6.7,11.5s2.5,10.4,5.3,10.4,4.1-1.6,4.1-5.2-1.8-4.7-4.3-4.7-3.6.9-5,3.5l-.3-4.9c1.7-2.5,4.7-3.9,6.8-3.9,5.5,0,9.6,3.1,9.6,10s-4.9,10.9-10.8,10.9-12.3-4.7-12.3-16.1Z"/>
      <path d="M459.4,484.9c0-11,4.6-16.7,11.6-16.7s11.6,5.7,11.6,16.7-4.6,16.9-11.6,16.9-11.6-5.9-11.6-16.9ZM475.5,484.9c0-8.8-2-10.9-4.5-10.9s-4.5,2-4.5,10.9,2,11.2,4.5,11.2,4.5-2.3,4.5-11.2Z"/>
    </g>
    <g id="aar1960-70">
      <path d="M267.4,641.8l7-1-2.6-18.6-6,.8-.6-4.6c3.3-1.1,5.5-2.3,7.5-4l5.5-.8,3.7,26.1,6-.8.8,6-20.4,2.9-.8-6Z"/>
      <path d="M293.1,641l3.3-5c1.3,1.1,3.4,1.9,5.3,1.6,3.8-.5,6.3-3.8,5.1-12.3-1.1-8-4-10-6.7-9.6-2.2.3-3.8,2.1-3.3,5.7.5,3.4,2.4,4.4,4.9,4.1,1.7-.2,3.4-1.4,4.5-4.2l1,4.8c-1.3,2.7-4.1,4.5-6.2,4.8-5.5.8-10-1.8-10.9-8.6-.9-6.7,3.3-11.4,9.2-12.2,6.2-.9,12.8,2.9,14.4,14.2,1.7,12-3.8,18.3-10.5,19.2-4.2.6-7.6-.8-9.9-2.5Z"/>
      <path d="M318,625.2c-1.7-12,3.8-18.3,10.5-19.2,4.2-.6,7.6.8,9.9,2.5l-3.3,5c-1.3-1.1-3.4-1.9-5.3-1.6-3.7.5-6.3,3.8-5.1,12.3,1.1,8,4,10,6.7,9.6,2.2-.3,3.8-2.1,3.3-5.7-.5-3.4-2.4-4.4-4.9-4.1-1.7.2-3.4,1.4-4.5,4.2l-1-4.8c1.3-2.7,4.1-4.5,6.2-4.8,5.5-.8,10,1.8,10.9,8.6.9,6.7-3.3,11.4-9.2,12.2-6.2.9-12.8-2.9-14.4-14.2Z"/>
      <path d="M344.3,620.6c-1.5-10.9,2.3-17.1,9.2-18.1,6.9-1,12.3,4,13.8,14.9,1.5,10.9-2.2,17.4-9.1,18.4-6.9,1-12.3-4.3-13.8-15.2ZM360.3,618.4c-1.2-8.8-3.5-10.5-6-10.1-2.5.4-4.2,2.6-2.9,11.4,1.2,8.8,3.5,10.8,6,10.4,2.5-.4,4.1-2.9,2.9-11.7Z"/>
      <path d="M371.4,617.6l12.4-1.7.7,5.3-12.4,1.7-.7-5.3Z"/>
      <path d="M400.3,602.9l-14.4,2-.9-6.2,22.3-3.1.6,4.6c-6.2,10-6.4,16.2-5.2,28.8l-7.5,1c-.9-10.8,0-17.8,4.9-27Z"/>
      <path d="M413.6,610.9c-1.5-10.9,2.3-17.1,9.2-18.1,6.9-1,12.3,4,13.8,14.9,1.5,10.9-2.2,17.4-9.1,18.4-6.9,1-12.3-4.3-13.8-15.2ZM429.5,608.6c-1.2-8.8-3.5-10.5-6-10.1-2.5.4-4.2,2.6-2.9,11.4,1.2,8.8,3.5,10.8,6,10.4,2.5-.4,4.1-2.9,2.9-11.7Z"/>
    </g>
    <g id="aar1980-83">
      <path d="M421.3,749.2h7.1v-18.7h-6.1v-4.7c3.5-.7,5.8-1.5,8-2.9h5.5v26.3h6.1v6h-20.6v-6Z"/>
      <path d="M446.9,752l4-4.5c1.1,1.2,3.1,2.3,5,2.3,3.8,0,6.7-2.9,6.7-11.5s-2.5-10.4-5.3-10.4-4.1,1.6-4.1,5.2,1.8,4.7,4.3,4.7,3.6-.9,5-3.5l.3,4.9c-1.7,2.5-4.7,3.9-6.8,3.9-5.5,0-9.6-3.1-9.6-10s4.9-10.9,10.8-10.9,12.3,4.7,12.3,16.1-6.3,17.6-13.1,17.6-7.4-1.8-9.5-3.9Z"/>
      <path d="M473.7,747c0-3.9,2.5-6.3,5.5-8v-.2c-2.5-1.9-4.4-4.2-4.4-7.6,0-5.5,4.3-8.9,10.4-8.9s9.8,3.5,9.8,8.9-2,5.6-4.2,7.1v.2c3.1,1.7,5.6,4.2,5.6,8.5s-4.6,9-11.5,9-11.3-3.6-11.3-8.9ZM489.5,746.7c0-2.9-2.8-3.9-6.8-5.6-1.4,1.3-2.5,3.1-2.5,5.1s2.3,4.5,5,4.5,4.3-1.3,4.3-4ZM489,731.7c0-2.5-1.5-4.2-3.9-4.2s-3.6,1.2-3.6,3.7,2.3,3.9,5.5,5.2c1.3-1.5,2-3.1,2-4.8Z"/>
      <path d="M500.4,738.9c0-11,4.6-16.7,11.6-16.7s11.6,5.7,11.6,16.7-4.6,16.9-11.6,16.9-11.6-5.9-11.6-16.9ZM516.5,738.9c0-8.8-2-10.9-4.5-10.9s-4.5,2-4.5,10.9,2,11.2,4.5,11.2,4.5-2.3,4.5-11.2Z"/>
      <path d="M527.7,739.7h12.5v5.3h-12.5v-5.3Z"/>
      <path d="M543.7,747c0-3.9,2.5-6.3,5.5-8v-.2c-2.5-1.9-4.4-4.2-4.4-7.6,0-5.5,4.3-8.9,10.4-8.9s9.8,3.5,9.8,8.9-2,5.6-4.2,7.1v.2c3.1,1.7,5.6,4.2,5.6,8.5s-4.6,9-11.5,9-11.3-3.6-11.3-8.9ZM559.5,746.7c0-2.9-2.8-3.9-6.8-5.6-1.4,1.3-2.5,3.1-2.5,5.1s2.3,4.5,5,4.5,4.3-1.3,4.3-4ZM559,731.7c0-2.5-1.5-4.2-3.9-4.2s-3.6,1.2-3.6,3.7,2.3,3.9,5.5,5.2c1.3-1.5,2-3.1,2-4.8Z"/>
      <path d="M569.6,751.3l3.5-4.7c2,1.9,4.4,3.3,7.1,3.3s5.3-1.4,5.3-3.9-1.7-4.6-8.7-4.6v-5.3c5.8,0,7.6-1.8,7.6-4.3s-1.5-3.6-4-3.6-4,1-6.1,2.8l-3.8-4.6c3-2.6,6.2-4.1,10.2-4.1,6.7,0,11.2,3.2,11.2,8.9s-1.9,5.7-5.4,7.2v.2c3.7,1.1,6.5,3.7,6.5,7.9,0,6-5.5,9.4-12,9.4s-8.9-1.9-11.3-4.6Z"/>
    </g>
    <g id="aar1970-80">
      <path d="M588.6,634.4l7.1.4,1-18.7-6.1-.3.2-4.6c3.5-.5,5.8-1.2,8.2-2.5l5.5.3-1.4,26.3,6.1.3-.3,6-20.6-1.1.3-6Z"/>
      <path d="M614,638.5l4.2-4.3c1,1.3,3,2.5,4.9,2.6,3.8.2,6.9-2.5,7.3-11.1.4-8-2-10.5-4.7-10.7-2.2-.1-4.2,1.3-4.3,5-.2,3.4,1.6,4.8,4,4.9,1.7,0,3.6-.8,5.2-3.2v4.9c-1.7,2.4-4.8,3.6-6.9,3.5-5.5-.3-9.5-3.6-9.1-10.5.4-6.7,5.5-10.6,11.3-10.3,6.3.3,12,5.3,11.4,16.7-.6,12.1-7.2,17.2-14,16.8-4.3-.2-7.3-2.2-9.3-4.4Z"/>
      <path d="M656.6,617.9l-14.5-.8.3-6.3,22.5,1.2-.2,4.6c-8,8.6-9.3,14.7-10.6,27.3l-7.5-.4c1.2-10.7,3.4-17.4,10-25.6Z"/>
      <path d="M668.2,628.3c.6-11,5.5-16.4,12.4-16,6.9.4,11.3,6.3,10.7,17.2-.6,11-5.5,16.7-12.5,16.3-7-.4-11.3-6.5-10.7-17.5ZM684.2,629.1c.5-8.8-1.4-11-3.9-11.1-2.5-.1-4.6,1.8-5.1,10.6-.5,8.8,1.4,11.2,3.9,11.4,2.5.1,4.6-2.1,5.1-10.9Z"/>
      <path d="M695.3,630.5l12.5.7-.3,5.3-12.5-.7.3-5.3Z"/>
      <path d="M711,638.6c.2-3.9,2.8-6.2,5.9-7.7v-.2c-2.4-2-4.1-4.5-3.9-7.8.3-5.5,4.8-8.7,10.8-8.4,5.9.3,9.6,4,9.4,9.4-.2,3.1-2.3,5.5-4.6,6.8v.2c3,1.9,5.3,4.5,5.1,8.8-.3,5.1-5.1,8.7-11.9,8.4-6.5-.3-11.1-4.2-10.8-9.5ZM726.7,639.1c.2-2.9-2.6-4.1-6.5-6-1.5,1.2-2.6,3-2.7,5-.1,2.8,2,4.6,4.8,4.8,2.5.1,4.4-1.1,4.5-3.8ZM727.1,624.1c.1-2.5-1.2-4.3-3.7-4.4-2-.1-3.7,1.1-3.8,3.5-.1,2.6,2,4,5.3,5.5,1.4-1.4,2.1-3,2.2-4.7Z"/>
      <path d="M738,631.9c.6-11,5.5-16.4,12.4-16s11.3,6.3,10.7,17.2c-.6,11-5.5,16.7-12.5,16.3s-11.3-6.5-10.7-17.5ZM754.1,632.8c.5-8.8-1.4-11-3.9-11.1-2.5-.1-4.6,1.8-5.1,10.6-.5,8.8,1.4,11.2,3.9,11.4,2.5.1,4.6-2.1,5.1-10.9Z"/>
    </g>
  </g>
</svg>